<svg width="87" height="80" viewBox="0 0 87 80" fill="none" xmlns="http://www.w3.org/2000/svg">
<path d="M8.70117 34.5798H17.4012V39.8998H8.70117V34.5798Z" fill="#007A7A"/>
<path d="M59.4498 1.32999V25.2697C59.4498 25.6225 59.2971 25.9608 59.0251 26.2102C58.7532 26.4596 58.3844 26.5997 57.9998 26.5997H50.5903C49.6768 22.2108 44.5438 18.9922 44.3118 18.8459C44.072 18.6973 43.7892 18.6178 43.4998 18.6178C43.2104 18.6178 42.9276 18.6973 42.6878 18.8459C42.4558 18.9922 37.3228 22.2108 36.4093 26.5997H28.9998C28.6152 26.5997 28.2464 26.4596 27.9745 26.2102C27.7026 25.9608 27.5498 25.6225 27.5498 25.2697V1.32999C27.5498 0.977252 27.7026 0.638965 27.9745 0.389544C28.2464 0.140123 28.6152 0 28.9998 0H37.6998V9.30991C37.6979 9.55099 37.7687 9.78786 37.9043 9.99439C38.0399 10.2009 38.2351 10.3691 38.4683 10.4803C38.6968 10.5975 38.9567 10.6534 39.2182 10.6417C39.4797 10.6299 39.7324 10.551 39.9473 10.4138L43.4998 8.24592L47.0523 10.4138C47.2704 10.5455 47.5232 10.6208 47.7841 10.6317C48.0449 10.6425 48.3041 10.5886 48.5343 10.4755C48.7645 10.3625 48.9572 10.1945 49.0919 9.98931C49.2266 9.78414 49.2985 9.54941 49.2998 9.30991V0H57.9998C58.3844 0 58.7532 0.140123 59.0251 0.389544C59.2971 0.638965 59.4498 0.977252 59.4498 1.32999V1.32999Z" fill="#007A7A"/>
<path d="M47.8504 27.9297C47.8504 25.19 44.9504 22.6896 43.5004 21.6123C42.0504 22.6896 39.1504 25.19 39.1504 27.9297C39.1504 31.534 41.1369 34.5796 43.5004 34.5796C45.8639 34.5796 47.8504 31.534 47.8504 27.9297Z" fill="#007A7A"/>
<path d="M53.6502 41.2296V39.9927C51.2357 40.316 49.0284 41.4248 47.4312 43.1169C45.8341 44.8089 44.9535 46.9713 44.9502 49.2094V50.4463C47.3647 50.123 49.5719 49.0142 51.1691 47.3221C52.7663 45.6301 53.6469 43.4677 53.6502 41.2296V41.2296Z" fill="#007A7A"/>
<path d="M44.2972 5.54599L46.3997 6.82277V0H40.5996V6.82277L42.7021 5.54599C42.9362 5.39662 43.2145 5.31655 43.4997 5.31655C43.7848 5.31655 44.0631 5.39662 44.2972 5.54599V5.54599Z" fill="#007A7A"/>
<path d="M69.5996 34.5798H78.2996V39.8998H69.5996V34.5798Z" fill="#007A7A"/>
<path d="M33.3486 39.9927V41.2296C33.3519 43.4677 34.2325 45.6301 35.8297 47.3221C37.4269 49.0142 39.6341 50.123 42.0486 50.4463V49.2094C42.0453 46.9713 41.1647 44.8089 39.5676 43.1169C37.9704 41.4248 35.7631 40.316 33.3486 39.9927Z" fill="#007A7A"/>
<path d="M82.65 15.9597H62.35V25.2696C62.3466 26.3268 61.8872 27.3399 61.0721 28.0874C60.2571 28.835 59.1526 29.2564 58 29.2595H50.6775C50.2425 33.2096 47.966 36.2952 44.95 37.0533V41.7082C46.1681 40.3127 47.7128 39.1865 49.4698 38.413C51.2268 37.6394 53.1511 37.2383 55.1 37.2394C55.4846 37.2394 55.8534 37.3796 56.1253 37.629C56.3972 37.8784 56.55 38.2167 56.55 38.5694V41.2294C56.55 44.404 55.1751 47.4486 52.7277 49.6934C50.2804 51.9381 46.9611 53.1992 43.5 53.1992C40.0389 53.1992 36.7196 51.9381 34.2723 49.6934C31.8249 47.4486 30.45 44.404 30.45 41.2294V38.5694C30.45 38.2167 30.6028 37.8784 30.8747 37.629C31.1466 37.3796 31.5154 37.2394 31.9 37.2394C33.8489 37.2383 35.7732 37.6394 37.5302 38.413C39.2872 39.1865 40.8319 40.3127 42.05 41.7082V37.0533C39.034 36.2952 36.7575 33.2096 36.3225 29.2595H29C27.8474 29.2564 26.7429 28.835 25.9279 28.0874C25.1129 27.3399 24.6534 26.3268 24.65 25.2696V15.9597H4.35C3.19737 15.9629 2.09293 16.3843 1.27789 17.1318C0.46285 17.8794 0.00344243 18.8924 0 19.9497V62.5091C0.00344243 63.5664 0.46285 64.5794 1.27789 65.327C2.09293 66.0745 3.19737 66.4959 4.35 66.4991H36.25V71.819H26.1C25.8318 71.8179 25.5687 71.8859 25.3405 72.0152C25.1124 72.1445 24.9284 72.33 24.8095 72.5505L21.9095 77.8704C21.7983 78.0729 21.7453 78.2981 21.7557 78.5246C21.766 78.7511 21.8393 78.9714 21.9686 79.1647C22.0979 79.3579 22.2789 79.5176 22.4944 79.6286C22.7099 79.7396 22.9528 79.7982 23.2 79.7989H63.8C64.0202 79.8 64.2379 79.7551 64.4363 79.6675C64.6348 79.5799 64.809 79.452 64.9455 79.2935C65.079 79.1327 65.1717 78.9465 65.2168 78.7487C65.262 78.5508 65.2585 78.3462 65.2065 78.1497L63.7565 72.8298C63.6788 72.5415 63.4981 72.2853 63.2432 72.1021C62.9883 71.9189 62.6738 71.8192 62.35 71.819H50.75V66.4991H82.65C83.8026 66.4959 84.9071 66.0745 85.7221 65.327C86.5372 64.5794 86.9966 63.5664 87 62.5091V19.9497C86.9966 18.8924 86.5372 17.8794 85.7221 17.1318C84.9071 16.3843 83.8026 15.9629 82.65 15.9597V15.9597ZM66.7 21.2796H81.2V23.9396H66.7V21.2796ZM66.7 26.5996H81.2V29.2595H66.7V26.5996ZM66.7 33.2495C66.7 32.8968 66.8528 32.5585 67.1247 32.3091C67.3966 32.0596 67.7654 31.9195 68.15 31.9195H79.75C80.1346 31.9195 80.5034 32.0596 80.7753 32.3091C81.0472 32.5585 81.2 32.8968 81.2 33.2495V41.2294C81.2 41.5821 81.0472 41.9204 80.7753 42.1698C80.5034 42.4193 80.1346 42.5594 79.75 42.5594H68.15C67.7654 42.5594 67.3966 42.4193 67.1247 42.1698C66.8528 41.9204 66.7 41.5821 66.7 41.2294V33.2495ZM66.7 45.2193H81.2V47.8793H66.7V45.2193ZM66.7 50.5393H81.2V53.1992H66.7V50.5393ZM5.8 21.2796H20.3V23.9396H5.8V21.2796ZM5.8 26.5996H20.3V29.2595H5.8V26.5996ZM5.8 33.2495C5.8 32.8968 5.95277 32.5585 6.2247 32.3091C6.49662 32.0596 6.86544 31.9195 7.25 31.9195H18.85C19.2346 31.9195 19.6034 32.0596 19.8753 32.3091C20.1472 32.5585 20.3 32.8968 20.3 33.2495V41.2294C20.3 41.5821 20.1472 41.9204 19.8753 42.1698C19.6034 42.4193 19.2346 42.5594 18.85 42.5594H7.25C6.86544 42.5594 6.49662 42.4193 6.2247 42.1698C5.95277 41.9204 5.8 41.5821 5.8 41.2294V33.2495ZM5.8 45.2193H20.3V47.8793H5.8V45.2193ZM5.8 50.5393H20.3V53.1992H5.8V50.5393ZM84.1 58.5192H2.9V55.8592H84.1V58.5192Z" fill="#007A7A"/>
</svg>
