<svg width="87" height="81" viewBox="0 0 87 81" fill="none" xmlns="http://www.w3.org/2000/svg">
<path d="M0 0V80.8855H87V0H0ZM81.9023 21.6906H35.4516L29.2405 5.45296H81.9023V21.6906ZM5.09766 75.4325V5.45296H23.7326L32.0296 27.1435H81.9023V75.4325H5.09766Z" fill="#007A7A"/>
<path d="M35.5647 56.9286C35.5647 59.7779 33.3977 62.096 30.734 62.096C28.0703 62.096 25.9033 59.7779 25.9033 56.9286V35.7366H20.8057V56.9286C20.8057 62.7847 25.2595 67.5489 30.734 67.5489C36.2086 67.5489 40.6624 62.7847 40.6624 56.9286V35.7366H35.5647V56.9286Z" fill="#007A7A"/>
<path d="M62.938 35.593L55.9984 46.7279L49.0588 35.593L44.8174 38.6178L52.9352 51.6431L44.8174 64.6683L49.0588 67.6931L55.9984 56.5582L62.938 67.6931L67.1794 64.6683L59.0618 51.6431L67.1794 38.6178L62.938 35.593Z" fill="#007A7A"/>
<path d="M71.7734 10.886H76.8711V16.3389H71.7734V10.886Z" fill="#007A7A"/>
<path d="M61.5781 10.886H66.6758V16.3389H61.5781V10.886Z" fill="#007A7A"/>
<path d="M51.3828 10.886H56.4805V16.3389H51.3828V10.886Z" fill="#007A7A"/>
</svg>
