<svg width="89" height="83" viewBox="0 0 89 83" fill="none" xmlns="http://www.w3.org/2000/svg">
<path d="M28.709 37.4834H31.5799V40.1608H28.709V37.4834Z" fill="#007A7A"/>
<path d="M22.9678 37.4834H25.8387V40.1608H22.9678V37.4834Z" fill="#007A7A"/>
<path d="M34.4512 37.4834H37.3221V40.1608H34.4512V37.4834Z" fill="#007A7A"/>
<path d="M37.3223 48.1934H40.1932V50.8708H37.3223V48.1934Z" fill="#007A7A"/>
<path d="M43.0654 48.1934H45.9364V50.8708H43.0654V48.1934Z" fill="#007A7A"/>
<path d="M31.5801 48.1934H34.451V50.8708H31.5801V48.1934Z" fill="#007A7A"/>
<path d="M34.4512 58.9031H37.3221V61.5805H34.4512V58.9031Z" fill="#007A7A"/>
<path d="M28.709 58.9031H31.5799V61.5805H28.709V58.9031Z" fill="#007A7A"/>
<path d="M22.9678 58.9031H25.8387V61.5805H22.9678V58.9031Z" fill="#007A7A"/>
<path d="M40.1936 69.6125H25.8387C24.2554 69.6125 22.9678 70.8134 22.9678 72.29V74.9674C22.9678 76.444 24.2554 77.6448 25.8387 77.6448H40.1936C41.7769 77.6448 43.0645 76.444 43.0645 74.9674V72.29C43.0645 70.8134 41.7769 69.6125 40.1936 69.6125ZM34.4516 72.29V74.9674H31.5807V72.29H34.4516ZM25.8387 72.29H28.7097V74.9674H25.8387V72.29ZM37.3226 74.9674V72.29H40.1936L40.195 74.9674H37.3226Z" fill="#007A7A"/>
<path d="M62.7608 41.4999L63.5331 39.3392C63.7082 39.275 63.8833 39.2067 64.0585 39.1344L66.2447 40.1545L69.1071 37.4838H77.5161C83.848 37.4838 89 32.6792 89 26.7741C89 20.8691 83.848 16.0645 77.5161 16.0645C76.7295 16.0645 75.9443 16.1421 75.1677 16.2961C72.8336 9.78996 66.3237 5.35483 58.8548 5.35483C54.9919 5.35483 51.3846 6.53422 48.4662 8.59048C44.7814 3.25707 38.4667 0 31.5806 0C22.6046 0 14.8472 5.45657 12.3322 13.3991C5.47924 13.6869 0 18.9762 0 25.4354C0 31.6256 5.03424 36.7354 11.4839 37.4048V76.3063C11.4839 79.9971 14.7037 82.9998 18.6613 82.9998H50.2419C54.1996 82.9998 57.4194 79.9971 57.4194 76.3063V41.4999H62.7608ZM68.2745 34.4744L65.6777 36.8961L64.0642 36.1451L63.4182 36.453C62.9302 36.6859 62.4349 36.8787 61.9497 37.0246L61.2593 37.2334L60.6908 38.8225H57.4194V34.6564C57.8902 34.7461 58.3696 34.8064 58.8548 34.8064C62.8125 34.8064 66.0323 31.8036 66.0323 28.1128C66.0323 24.422 62.8125 21.4193 58.8548 21.4193C55.3264 21.4193 52.4009 23.8116 51.8037 26.9441C51.2999 26.8397 50.7802 26.7741 50.2419 26.7741H47.371V26.4006L49.0749 25.8718L49.2988 25.2279C49.4553 24.7741 49.662 24.3136 49.9118 23.8584L50.2419 23.256L49.4352 21.7526L52.032 19.3309L53.6455 20.0806L54.2914 19.7727C54.7795 19.5398 55.2747 19.347 55.7599 19.2011L56.4504 18.9922L57.0189 17.4032H60.6923L61.2593 18.9922L61.9497 19.2011C62.4364 19.347 62.9302 19.5398 63.4182 19.7727L64.0642 20.0806L65.6763 19.3282L68.273 21.75L67.4677 23.2547L67.7979 23.8571C68.0477 24.3122 68.2544 24.7741 68.4109 25.2266L68.6348 25.8705L70.3387 26.4006V29.8264L68.6348 30.3552L68.4109 30.9991C68.2544 31.4529 68.0477 31.9134 67.7979 32.3686L67.4677 32.971L68.2745 34.4744ZM54.5484 28.1128C54.5484 25.8986 56.4805 24.0967 58.8548 24.0967C61.2291 24.0967 63.1613 25.8986 63.1613 28.1128C63.1613 30.3271 61.2291 32.129 58.8548 32.129C58.262 32.129 57.6921 31.983 57.1552 31.7648C56.7389 30.3003 55.8116 29.0392 54.5513 28.149C54.5513 28.1369 54.5484 28.1249 54.5484 28.1128ZM11.4839 33.4677V34.6993C6.62189 34.046 2.87097 30.1463 2.87097 25.4354C2.87097 20.268 7.37839 16.0645 12.9194 16.0645C12.9969 16.0645 13.0715 16.0698 13.1476 16.0752L14.5572 16.1368L14.83 15.0564C16.6674 7.76717 23.5563 2.67741 31.5806 2.67741C37.6355 2.67741 43.1808 5.6132 46.3001 10.3977C44.8244 11.8663 43.6287 13.6106 42.8047 15.5772L45.479 16.5518C47.6451 11.3763 52.8961 8.03224 58.8548 8.03224C65.4939 8.03224 71.223 12.2371 72.7891 18.2573L73.1623 19.695L74.6595 19.2037C75.5969 18.8972 76.5572 18.7419 77.5161 18.7419C82.2661 18.7419 86.129 22.3443 86.129 26.7741C86.129 31.2039 82.2661 34.8064 77.5161 34.8064H71.6622L70.6746 32.9643C70.7521 32.801 70.8253 32.6377 70.8942 32.4743L73.2097 31.7555V24.4716L70.8928 23.7513C70.8239 23.588 70.7507 23.4247 70.6732 23.2614L71.767 21.2225L66.2433 16.0712L64.057 17.0913C63.8819 17.019 63.7068 16.9507 63.5316 16.8864L62.7608 14.7258H54.9503L54.178 16.8864C54.0029 16.9507 53.8278 17.019 53.6526 17.0913L51.4664 16.0712L45.9427 21.2225L47.0365 23.2614C46.959 23.4247 46.8858 23.588 46.8169 23.7513L44.5 24.4702V26.7741H18.6613C14.7037 26.7741 11.4839 29.7768 11.4839 33.4677V33.4677ZM48.8064 42.8386H20.0968V34.8064H48.8064V42.8386ZM20.0968 45.516H48.8064V53.5483H20.0968V45.516ZM20.0968 56.2257H48.8064V64.2579H20.0968V56.2257ZM20.0968 66.9353H48.8064V80.3224H20.0968V66.9353ZM54.5484 76.3063C54.5484 78.0493 53.344 79.5218 51.6774 80.0761V34.8064C51.6774 33.3298 50.3898 32.129 48.8064 32.129H20.0968C18.5134 32.129 17.2258 33.3298 17.2258 34.8064V80.0761C15.5592 79.5218 14.3548 78.0493 14.3548 76.3063V33.4677C14.3548 31.2534 16.287 29.4515 18.6613 29.4515H50.2419C52.6162 29.4515 54.5484 31.2534 54.5484 33.4677V76.3063Z" fill="#007A7A"/>
<path d="M73.2104 74.9676C71.3414 74.9676 69.7623 76.0907 69.168 77.645H66.033V70.9514H60.291V73.6288H63.162V80.3224H69.168C69.7623 81.8766 71.3414 82.9998 73.2104 82.9998C75.5847 82.9998 77.5168 81.1979 77.5168 78.9837C77.5168 76.7695 75.5847 74.9676 73.2104 74.9676ZM73.2104 80.3224C72.4194 80.3224 71.7749 79.7213 71.7749 78.9837C71.7749 78.2461 72.4194 77.645 73.2104 77.645C74.0013 77.645 74.6459 78.2461 74.6459 78.9837C74.6459 79.7213 74.0013 80.3224 73.2104 80.3224Z" fill="#007A7A"/>
<path d="M78.9523 66.9354C77.0833 66.9354 75.5043 68.0586 74.91 69.6128H71.7749V65.5967H60.291V68.2741H68.9039V72.2902H74.91C75.5043 73.8445 77.0833 74.9677 78.9523 74.9677C81.3266 74.9677 83.2587 73.1658 83.2587 70.9515C83.2587 68.7373 81.3266 66.9354 78.9523 66.9354ZM78.9523 72.2902C78.1613 72.2902 77.5168 71.6892 77.5168 70.9515C77.5168 70.2139 78.1613 69.6128 78.9523 69.6128C79.7432 69.6128 80.3878 70.2139 80.3878 70.9515C80.3878 71.6892 79.7432 72.2902 78.9523 72.2902Z" fill="#007A7A"/>
<path d="M83.2587 52.2095C83.2587 49.9953 81.3266 48.1934 78.9523 48.1934C77.0833 48.1934 75.5043 49.3165 74.91 50.8708H68.9039V54.8869H60.291V57.5643H71.7749V53.5482H74.91C75.5043 55.1024 77.0833 56.2256 78.9523 56.2256C81.3266 56.2256 83.2587 54.4237 83.2587 52.2095ZM77.5168 52.2095C77.5168 51.4719 78.1613 50.8708 78.9523 50.8708C79.7432 50.8708 80.3878 51.4719 80.3878 52.2095C80.3878 52.9471 79.7432 53.5482 78.9523 53.5482C78.1613 53.5482 77.5168 52.9471 77.5168 52.2095Z" fill="#007A7A"/>
<path d="M84.6932 57.5647C82.3189 57.5647 80.3867 59.3666 80.3867 61.5808C80.3867 63.795 82.3189 65.5969 84.6932 65.5969C87.0674 65.5969 88.9996 63.795 88.9996 61.5808C88.9996 59.3666 87.0674 57.5647 84.6932 57.5647ZM84.6932 62.9195C83.9022 62.9195 83.2577 62.3184 83.2577 61.5808C83.2577 60.8432 83.9022 60.2421 84.6932 60.2421C85.4841 60.2421 86.1286 60.8432 86.1286 61.5808C86.1286 62.3184 85.4841 62.9195 84.6932 62.9195Z" fill="#007A7A"/>
<path d="M60.291 60.2417H77.5168V62.9191H60.291V60.2417Z" fill="#007A7A"/>
<path d="M69.168 45.5157C69.7623 47.07 71.3414 48.1932 73.2104 48.1932C75.5847 48.1932 77.5168 46.3913 77.5168 44.177C77.5168 41.9628 75.5847 40.1609 73.2104 40.1609C71.3414 40.1609 69.7623 41.2841 69.168 42.8383H63.162V49.5319H60.291V52.2093H66.033V45.5157H69.168ZM73.2104 42.8383C74.0013 42.8383 74.6459 43.4394 74.6459 44.177C74.6459 44.9147 74.0013 45.5157 73.2104 45.5157C72.4194 45.5157 71.7749 44.9147 71.7749 44.177C71.7749 43.4394 72.4194 42.8383 73.2104 42.8383Z" fill="#007A7A"/>
<path d="M31.5809 8.03142C32.4436 8.03142 33.302 8.12111 34.1346 8.29648L34.7691 5.686C33.7298 5.46512 32.6575 5.354 31.5809 5.354C24.8298 5.354 19.0735 9.63652 17.582 15.7678L20.3812 16.3595C21.5741 11.4558 26.1791 8.03142 31.5809 8.03142Z" fill="#007A7A"/>
</svg>
