<svg width="85" height="78" viewBox="0 0 85 78" fill="none" xmlns="http://www.w3.org/2000/svg">
<rect width="85" height="78" fill="#FCFCFC"/>
<path d="M85 18.4336V7.00781C85 3.22771 81.6486 0.152344 77.5293 0.152344H7.4707C3.35136 0.152344 0 3.22771 0 7.00781V18.4336H85ZM57.4414 9.29297H72.3828C73.7581 9.29297 74.873 10.3161 74.873 11.5781C74.873 12.8401 73.7581 13.8633 72.3828 13.8633H57.4414C56.0661 13.8633 54.9512 12.8401 54.9512 11.5781C54.9512 10.3161 56.0661 9.29297 57.4414 9.29297ZM32.5391 9.29297C33.9143 9.29297 35.0293 10.3161 35.0293 11.5781C35.0293 12.8401 33.9143 13.8633 32.5391 13.8633C31.1638 13.8633 30.0488 12.8401 30.0488 11.5781C30.0488 10.3161 31.1638 9.29297 32.5391 9.29297ZM22.5781 9.29297C23.9534 9.29297 25.0684 10.3161 25.0684 11.5781C25.0684 12.8401 23.9534 13.8633 22.5781 13.8633C21.2029 13.8633 20.0879 12.8401 20.0879 11.5781C20.0879 10.3161 21.2029 9.29297 22.5781 9.29297ZM12.6172 9.29297C13.9925 9.29297 15.1074 10.3161 15.1074 11.5781C15.1074 12.8401 13.9925 13.8633 12.6172 13.8633C11.2419 13.8633 10.127 12.8401 10.127 11.5781C10.127 10.3161 11.2419 9.29297 12.6172 9.29297Z" fill="#007A7A"/>
<path d="M0 23.0039V70.9922C0 74.7723 3.35136 77.8477 7.4707 77.8477H77.5293C81.6486 77.8477 85 74.7723 85 70.9922V23.0039H0ZM29.1142 55.4968C30.1883 56.2852 30.3623 57.7232 29.5031 58.7087C28.6442 59.6941 27.0768 59.854 26.003 59.0655L13.5519 49.9249C12.3069 49.0113 12.3061 47.2704 13.5519 46.3561L26.003 37.2154C27.0765 36.4271 28.6438 36.5867 29.5031 37.5722C30.3623 38.5577 30.1883 39.9959 29.1142 40.7841L19.0938 48.1406L29.1142 55.4968ZM52.2596 33.0447L37.3182 65.0369C36.7764 66.1967 35.3129 66.7345 34.0483 66.2371C32.7843 65.74 32.1986 64.3965 32.7404 63.2365L47.6818 31.2443C48.2237 30.0844 49.6876 29.5471 50.9517 30.0442C52.2157 30.5413 52.8014 31.8846 52.2596 33.0447ZM71.4481 49.925L58.997 59.0657C57.9248 59.853 56.3573 59.6957 55.4969 58.7089C54.6377 57.7233 54.8117 56.2852 55.8858 55.497L65.9062 48.1406L55.8858 40.7844C54.8117 39.996 54.6377 38.5581 55.4969 37.5725C56.3558 36.587 57.923 36.4272 58.997 37.2157L71.4481 46.3564C72.6931 47.27 72.6939 49.0107 71.4481 49.925Z" fill="#007A7A"/>
</svg>
