<svg width="87" height="86" viewBox="0 0 87 86" fill="none" xmlns="http://www.w3.org/2000/svg">
<g clip-path="url(#clip0)">
<path d="M60.4504 85.856C62.4158 85.8507 64.1358 84.5493 64.654 82.6753L68.6626 67.8814L83.8436 63.8696C86.1568 63.2478 87.5264 60.8956 86.91 58.6064L79.0388 29.6068L79.6619 27.3143C80.2252 25.2029 79.0972 23.0094 77.0395 22.2144L73.4954 9.13637C72.861 6.85175 70.4874 5.49593 68.1683 6.09283L42.2787 12.9579L20.5696 7.20464C19.6797 6.96326 18.7348 7.01377 17.8768 7.34829L12.4535 1.99651C10.6254 0.173005 6.53851 2.45893 4.02891 3.11946C1.51932 3.77999 0.971212 2.71345 0.30234 5.1942C-0.366531 7.67495 0.35808 10.3197 2.20212 12.1268L12.0872 21.8983L0.243947 65.602C-0.375821 67.8938 0.9951 70.2493 3.31094 70.8724L59.3216 85.7071C59.6893 85.8061 60.0688 85.8566 60.4504 85.856ZM84.1051 59.347C84.3101 60.1072 83.8569 60.8891 83.0898 61.0983L69.5306 64.6804L77.5338 35.1469L84.1051 59.347ZM68.9101 8.86416C69.2837 8.76315 69.6825 8.81431 70.0176 9.00584C70.3527 9.19672 70.5963 9.51288 70.6945 9.88283L73.7867 21.3007L47.8785 14.4396L68.9101 8.86416ZM43.9774 43.2969L36.659 40.8856L41.5382 36.058L43.9774 43.2916V43.2969ZM38.0777 35.4335L25.7779 23.2738C25.2118 22.7143 24.2935 22.7143 23.7274 23.2744C23.1614 23.8339 23.1621 24.7418 23.7288 25.3013L36.0293 37.4577L33.9802 39.4859L13.4787 19.2201L15.5285 17.1939L19.6273 21.2476C19.9942 21.6097 20.5277 21.7513 21.0287 21.6182C21.5291 21.4857 21.9199 21.0993 22.0539 20.6048C22.188 20.1102 22.0453 19.5822 21.679 19.2201L17.5795 15.1677L19.6293 13.1402L40.1274 33.406L38.0777 35.4335ZM9.3779 15.1677L15.5285 9.08783L17.5782 11.114L11.429 17.1939L9.3779 15.1677ZM2.97915 7.06165C2.97915 5.32276 2.6268 6.75794 4.25187 6.09282C5.8776 5.4277 9.16025 2.79216 10.4038 4.02204L13.4787 7.06165L7.32815 13.1415L4.25187 10.1006C3.43436 9.29642 2.97584 8.20232 2.97915 7.06165ZM3.04617 66.3543L14.4568 24.2406L32.9536 42.5248C33.1049 42.6711 33.2867 42.782 33.4871 42.8502C33.4984 42.8502 33.507 42.8659 33.5203 42.8699L43.069 46.0223C43.3669 46.1194 43.6795 46.1672 43.9933 46.1659C44.5395 46.164 45.0736 46.0085 45.5328 45.7173L62.2028 50.1422C62.3256 50.1757 62.4523 50.1927 62.5797 50.1921C63.3077 50.1921 63.9221 49.6588 64.0164 48.9458C64.1113 48.2328 63.6567 47.5611 62.954 47.3755L46.8639 43.1053C46.8493 42.862 46.8049 42.6213 46.7305 42.3884L43.5415 32.9488C43.5415 32.9357 43.5255 32.9272 43.5196 32.9141C43.4505 32.7179 43.3384 32.5389 43.1917 32.39L20.7872 10.2338L75.8291 24.808C76.2014 24.9064 76.5186 25.1465 76.711 25.4764C76.9034 25.8057 76.9552 26.1973 76.8556 26.5653L61.8551 81.9256C61.7563 82.2936 61.5127 82.6078 61.179 82.798C60.8452 82.9882 60.4484 83.0394 60.0768 82.9403L4.07204 68.1109C3.70045 68.0125 3.38326 67.7725 3.19017 67.4432C2.99773 67.1133 2.94598 66.7217 3.04617 66.3543Z" fill="#007A7A"/>
<path d="M67.028 33.7284C67.7553 33.7278 68.3698 33.1945 68.4647 32.4815C68.5589 31.7692 68.1043 31.0968 67.4023 30.9112L46.7847 25.4505C46.2791 25.3016 45.7323 25.4361 45.3561 25.8015C44.9798 26.1662 44.8338 26.7047 44.9745 27.2065C45.1152 27.7089 45.5213 28.0959 46.0336 28.2173L66.6525 33.6793C66.7752 33.712 66.9013 33.7284 67.028 33.7284V33.7284Z" fill="#007A7A"/>
<path d="M64.7745 42.0317C65.5018 42.031 66.1162 41.4984 66.2111 40.7854C66.306 40.0724 65.8515 39.4007 65.1488 39.2145L51.131 35.5078C50.6273 35.3661 50.0859 35.5032 49.7136 35.8679C49.3414 36.2319 49.1974 36.7665 49.336 37.2657C49.4747 37.7648 49.8749 38.1512 50.3831 38.2758L64.4009 41.9832C64.5224 42.0153 64.6484 42.0317 64.7745 42.0317Z" fill="#007A7A"/>
<path d="M20.0452 45.0696L15.8415 43.9565C15.3372 43.8109 14.7924 43.946 14.4181 44.3107C14.0439 44.6747 13.8979 45.2106 14.0373 45.7118C14.1766 46.2123 14.5787 46.5993 15.089 46.7232L19.2927 47.8383C19.4161 47.8705 19.5422 47.8869 19.6696 47.8869C20.3975 47.8875 21.0126 47.3542 21.1075 46.6412C21.2024 45.9282 20.7479 45.2559 20.0452 45.0696Z" fill="#007A7A"/>
<path d="M61.6739 57.5775C61.8809 56.8134 61.4217 56.0289 60.6494 55.8236L28.444 47.2951C27.6968 47.1508 26.9642 47.6034 26.7665 48.3301C26.5694 49.0569 26.9748 49.8112 27.6948 50.0559L59.8982 58.585C60.021 58.6185 60.147 58.6349 60.2738 58.6349C60.9287 58.6356 61.5027 58.202 61.6739 57.5775Z" fill="#007A7A"/>
<path d="M17.7932 53.3736L13.5895 52.2599C12.8178 52.0598 12.0275 52.5137 11.8211 53.2753C11.6148 54.0375 12.0706 54.8213 12.8404 55.0286L17.044 56.1404C17.1661 56.1738 17.2922 56.1909 17.4196 56.1902C18.1469 56.1909 18.762 55.6576 18.8569 54.9446C18.9524 54.2316 18.4979 53.5593 17.7945 53.3736H17.7932Z" fill="#007A7A"/>
<path d="M58.3983 64.129L26.1949 55.5986C25.6892 55.4503 25.1425 55.5848 24.7662 55.9495C24.39 56.3149 24.244 56.8527 24.3847 57.3552C24.5253 57.857 24.9314 58.244 25.4437 58.366L57.6478 66.8958C57.7705 66.9292 57.8973 66.9463 58.0247 66.9463C58.7519 66.9456 59.3664 66.4123 59.4613 65.6993C59.5555 64.9863 59.101 64.3147 58.3983 64.129V64.129Z" fill="#007A7A"/>
</g>
<defs>
<clipPath id="clip0">
<rect width="87" height="86" fill="white"/>
</clipPath>
</defs>
</svg>
