<svg width="82" height="78" viewBox="0 0 82 78" fill="none" xmlns="http://www.w3.org/2000/svg">
<g clip-path="url(#clip0)">
<path d="M33.1643 43.4483C33.1643 40.7359 27.928 41.7934 27.928 38.1151C27.928 35.8466 29.9256 35.1724 31.6497 35.1724C32.697 35.1724 34.582 35.433 34.582 36.2757C34.582 36.5827 34.3568 37.1493 33.8732 37.1493C33.4384 37.1493 33.0192 36.5673 31.6497 36.5673C30.4736 36.5673 29.6359 36.9963 29.6359 37.9616C29.6359 40.2301 34.8723 39.2029 34.8723 43.2799C34.8723 45.4716 33.3251 46.5446 31.1987 46.5446C29.1041 46.5446 27.6377 45.502 27.6377 44.7361C27.6377 44.3677 27.9762 43.8625 28.379 43.8625C28.959 43.8625 29.3456 45.0729 31.1342 45.0729C32.2941 45.0729 33.1643 44.5516 33.1643 43.4483V43.4483Z" fill="#007A7A"/>
<path d="M39.0302 40.1688H41.5113C41.8661 40.1688 42.0756 40.4753 42.0756 40.8276C42.0756 41.1186 41.898 41.456 41.5113 41.456H39.0302V44.9814H43.8155C44.1696 44.9814 44.3791 45.3182 44.3791 45.7169C44.3791 46.0537 44.2021 46.4215 43.8155 46.4215H38.0799C37.7089 46.4215 37.3223 46.2376 37.3223 45.8853V35.7544C37.3223 35.4021 37.7089 35.2183 38.0799 35.2183H43.8155C44.2021 35.2183 44.3791 35.586 44.3791 35.9234C44.3791 36.3216 44.1696 36.659 43.8155 36.659H39.0302V40.1688Z" fill="#007A7A"/>
<path d="M46.3291 43.0961V38.6359C46.3291 36.1532 47.8919 35.2183 49.9382 35.2183C51.9684 35.2183 53.5637 36.1532 53.5637 38.6359V43.0961C53.5637 45.5788 51.9684 46.5137 49.9382 46.5137C47.8925 46.5137 46.3291 45.5788 46.3291 43.0961V43.0961ZM51.8557 38.6359C51.8557 37.2874 51.1307 36.659 49.9382 36.659C48.7302 36.659 48.037 37.2874 48.037 38.6359V43.0961C48.037 44.4446 48.7302 45.073 49.9382 45.073C51.1307 45.073 51.8557 44.4446 51.8557 43.0961V38.6359Z" fill="#007A7A"/>
<path d="M60.8472 6.81151C60.8472 7.60298 60.1722 8.24508 59.3401 8.24508C58.508 8.24508 57.833 7.60298 57.833 6.81151C57.833 6.02003 58.508 5.37793 59.3401 5.37793C60.1722 5.37793 60.8472 6.02003 60.8472 6.81151V6.81151Z" fill="#007A7A"/>
<path d="M68.0718 6.81151C68.0718 7.60298 67.3968 8.24508 66.5647 8.24508C65.7326 8.24508 65.0576 7.60298 65.0576 6.81151C65.0576 6.02003 65.7326 5.37793 66.5647 5.37793C67.3968 5.37793 68.0718 6.02003 68.0718 6.81151Z" fill="#007A7A"/>
<path d="M75.2954 6.81151C75.2954 7.60298 74.6204 8.24508 73.7883 8.24508C72.9563 8.24508 72.2812 7.60298 72.2812 6.81151C72.2812 6.02003 72.9563 5.37793 73.7883 5.37793C74.6204 5.37793 75.2954 6.02003 75.2954 6.81151V6.81151Z" fill="#007A7A"/>
<path d="M37.3984 5.66895H8.14551C7.48236 5.66895 6.94434 6.18013 6.94434 6.81152C6.94434 7.44232 7.48236 7.9541 8.14551 7.9541H37.3984C38.0616 7.9541 38.5996 7.44232 38.5996 6.81152C38.5996 6.18013 38.0616 5.66895 37.3984 5.66895Z" fill="#007A7A"/>
<path d="M55.289 27.6818C51.449 24.0297 46.3441 22.0183 40.9144 22.0183C35.4841 22.0183 30.3791 24.0297 26.5391 27.6818C18.6133 35.2216 18.6133 47.4895 26.5391 55.0293C30.3791 58.6814 35.4841 60.6928 40.9144 60.6928C46.3441 60.6928 51.449 58.6814 55.289 55.0293C63.2155 47.4895 63.2155 35.2216 55.289 27.6818ZM53.5905 53.413C50.2047 56.6343 45.7028 58.4076 40.9144 58.4076C36.126 58.4076 31.6241 56.6337 28.2383 53.413C21.2483 46.7646 21.2483 35.9465 28.2383 29.2975C31.6241 26.0768 36.126 24.3035 40.9144 24.3035C45.7028 24.3035 50.2047 26.0768 53.5905 29.2975C60.5798 35.9465 60.5798 46.7646 53.5905 53.413Z" fill="#007A7A"/>
<path d="M80.7988 26.6357C80.1357 26.6357 79.5977 27.1469 79.5977 27.7783V74.0099C79.5977 74.9501 78.7937 75.7148 77.8053 75.7148H74.7905L77.286 73.341C77.7878 72.8637 78.0643 72.2288 78.0643 71.5539C78.0643 70.8791 77.7878 70.2441 77.286 69.7669L66.072 59.0998C65.0359 58.1143 63.3506 58.1143 62.3145 59.0998L61.7909 59.5979L59.6832 57.593C68.7377 48.1335 68.4624 33.4287 58.8543 24.2899C48.9621 14.8803 32.8664 14.8803 22.9737 24.2899C18.1815 28.8483 15.5427 34.9087 15.5427 41.3553C15.5427 47.8014 18.1815 53.8624 22.9737 58.4208C27.9197 63.1256 34.4167 65.478 40.9143 65.478C47.0371 65.478 53.16 63.3875 57.9847 59.2087L60.0924 61.2136L59.5687 61.7111C59.067 62.1889 58.7905 62.8233 58.7905 63.4982C58.7905 64.1736 59.067 64.808 59.5687 65.2852L70.5326 75.7148H4.19472C3.20625 75.7148 2.40234 74.9501 2.40234 74.0099V64.0659C2.40234 63.4351 1.86432 62.9233 1.20117 62.9233C0.538025 62.9233 0 63.4351 0 64.0659V74.0099C0 76.2099 1.88184 78 4.19472 78H77.8053C80.1182 78 82 76.2099 82 74.0099V27.7783C82 27.1469 81.462 26.6357 80.7988 26.6357V26.6357ZM24.6722 56.8051C20.3342 52.6782 17.945 47.1914 17.945 41.3553C17.945 35.5193 20.3342 30.0325 24.6722 25.9061C29.1503 21.6465 35.0323 19.5166 40.9143 19.5166C46.7963 19.5166 52.6783 21.6465 57.1558 25.9061C66.1114 34.4249 66.1114 48.2858 57.1558 56.8051C48.2001 65.3239 33.6284 65.3239 24.6722 56.8051V56.8051ZM61.1928 63.4987C61.1928 63.4529 61.206 63.3863 61.2673 63.3274L64.0131 60.7161C64.0631 60.6685 64.1282 60.6453 64.1933 60.6453C64.2583 60.6453 64.3234 60.6685 64.3734 60.7161L75.5875 71.3831C75.6488 71.4415 75.6619 71.5081 75.6619 71.5539C75.6619 71.5997 75.6488 71.6664 75.5875 71.7253L72.8417 74.3372C72.7422 74.4312 72.5808 74.4312 72.4813 74.3372L61.2673 63.6701C61.206 63.6112 61.1928 63.5446 61.1928 63.4987Z" fill="#007A7A"/>
<path d="M77.8053 0H4.19472C1.88184 0 0 1.79004 0 3.9901V59.5009C0 60.1323 0.538025 60.6435 1.20117 60.6435C1.86432 60.6435 2.40234 60.1323 2.40234 59.5009V13.6229H79.5977V23.1783C79.5977 23.8097 80.1357 24.3208 80.7988 24.3208C81.462 24.3208 82 23.8097 82 23.1783V3.9901C82 1.79004 80.1182 0 77.8053 0V0ZM2.40234 11.3377V3.9901C2.40234 3.04985 3.20625 2.28516 4.19472 2.28516H77.8053C78.7937 2.28516 79.5977 3.04985 79.5977 3.9901V11.3377H2.40234Z" fill="#007A7A"/>
</g>
<defs>
<clipPath id="clip0">
<rect width="82" height="78" fill="white"/>
</clipPath>
</defs>
</svg>
